<?xml version="1.0" encoding="utf-8"?>
<svg width="22" height="24" viewBox="0 0 22 24" fill="none" xmlns="http://www.w3.org/2000/svg">
<path d="M20.7708 23.9879H1.77081C1.45587 23.9879 1.15382 23.8628 0.931124 23.6401C0.708424 23.4174 0.583313 23.1154 0.583313 22.8004V1.42542C0.583313 1.11047 0.708424 0.808425 0.931124 0.585726C1.15382 0.363026 1.45587 0.237915 1.77081 0.237915H20.7708C21.0858 0.237915 21.3878 0.363026 21.6105 0.585726C21.8332 0.808425 21.9583 1.11047 21.9583 1.42542V22.8004C21.9583 23.1154 21.8332 23.4174 21.6105 23.6401C21.3878 23.8628 21.0858 23.9879 20.7708 23.9879ZM19.5833 21.6129V2.61292H2.95831V21.6129H19.5833ZM6.52081 6.17542H16.0208V8.55042H6.52081V6.17542ZM6.52081 10.9254H16.0208V13.3004H6.52081V10.9254ZM6.52081 15.6754H16.0208V18.0504H6.52081V15.6754Z" fill="white"/>
</svg>
