<?xml version="1.0" encoding="utf-8"?>
<svg width="25" height="24" viewBox="0 0 25 24" fill="none" xmlns="http://www.w3.org/2000/svg">
<path d="M21.1458 0.237915C21.8013 0.237915 22.3333 0.769915 22.3333 1.42542V5.88685L19.9583 8.26185V2.61292H3.33333V21.6129H19.9583V18.3378L22.3333 15.9628V22.8004C22.3333 23.4559 21.8013 23.9879 21.1458 23.9879H2.14583C1.49033 23.9879 0.958328 23.4559 0.958328 22.8004V1.42542C0.958328 0.769915 1.49033 0.237915 2.14583 0.237915H21.1458ZM23.2572 8.32241L24.9363 10.0015L15.7 19.2379L14.0185 19.2355L14.0208 17.5588L23.2572 8.32241V8.32241ZM12.8333 12.1129V14.4879H6.89583V12.1129H12.8333ZM16.3958 7.36292V9.73792H6.89583V7.36292H16.3958Z" fill="white"/>
</svg>
