<?xml version="1.0" encoding="utf-8"?>
<svg width="27" height="24" viewBox="0 0 27 24" fill="none" xmlns="http://www.w3.org/2000/svg">
<path d="M24.5 21.4879H26.875V23.8629H0.75V21.4879H3.125V1.30042C3.125 0.98547 3.25011 0.683425 3.47281 0.460726C3.69551 0.238026 3.99756 0.112915 4.3125 0.112915H23.3125C23.6274 0.112915 23.9295 0.238026 24.1522 0.460726C24.3749 0.683425 24.5 0.98547 24.5 1.30042V21.4879ZM22.125 21.4879V2.48792H5.5V21.4879H22.125ZM9.0625 10.8004H12.625V13.1754H9.0625V10.8004ZM9.0625 6.05042H12.625V8.42542H9.0625V6.05042ZM9.0625 15.5504H12.625V17.9254H9.0625V15.5504ZM15 15.5504H18.5625V17.9254H15V15.5504ZM15 10.8004H18.5625V13.1754H15V10.8004ZM15 6.05042H18.5625V8.42542H15V6.05042Z" fill="white"/>
</svg>
