<?xml version="1.0" encoding="utf-8"?>
<svg width="22" height="24" viewBox="0 0 22 24" fill="none" xmlns="http://www.w3.org/2000/svg">
<path d="M14.8333 2.48792H2.95831V21.4879H19.5833V7.23792H14.8333V2.48792ZM0.583313 1.29092C0.583313 0.640165 1.11413 0.112915 1.76963 0.112915H16.0208L21.9583 6.05042V22.6671C21.9594 22.823 21.9298 22.9777 21.8711 23.1222C21.8124 23.2667 21.7259 23.3982 21.6164 23.5092C21.5069 23.6203 21.3766 23.7087 21.2329 23.7693C21.0893 23.83 20.9351 23.8618 20.7791 23.8629H1.7625C1.45064 23.8607 1.15215 23.736 0.931509 23.5156C0.710872 23.2951 0.5858 22.9968 0.583313 22.6849V1.29092ZM11.2708 11.3942C10.4835 11.3942 9.72834 11.0814 9.17159 10.5246C8.61484 9.96789 8.30206 9.21278 8.30206 8.42542C8.30206 7.63805 8.61484 6.88294 9.17159 6.32619C9.72834 5.76944 10.4835 5.45667 11.2708 5.45667C12.0582 5.45667 12.8133 5.76944 13.37 6.32619C13.9268 6.88294 14.2396 7.63805 14.2396 8.42542C14.2396 9.21278 13.9268 9.96789 13.37 10.5246C12.8133 11.0814 12.0582 11.3942 11.2708 11.3942ZM5.95913 17.9254C6.10307 16.6173 6.72469 15.4082 7.70485 14.53C8.685 13.6518 9.95477 13.1662 11.2708 13.1662C12.5869 13.1662 13.8566 13.6518 14.8368 14.53C15.8169 15.4082 16.4386 16.6173 16.5825 17.9254H5.95913Z" fill="white"/>
</svg>
