<?xml version="1.0" encoding="utf-8"?>
<svg width="28" height="24" viewBox="0 0 28 24" fill="none" xmlns="http://www.w3.org/2000/svg">
<path d="M2.95035 2.47996C4.39237 1.03768 6.32647 0.194098 8.36457 0.118476C10.4027 0.0428542 12.394 0.740789 13.9389 2.07224C15.4825 0.743008 17.4711 0.0458575 19.5068 0.120355C21.5424 0.194852 23.4748 1.0355 24.9171 2.474C26.3594 3.9125 27.2051 5.84268 27.2849 7.87813C27.3647 9.91358 26.6728 11.9041 25.3476 13.4511L15.6953 23.1344C15.2519 23.5781 14.6571 23.8377 14.0303 23.8612C13.4035 23.8847 12.7909 23.6704 12.3155 23.2612L12.1787 23.1357L2.52771 13.4511C1.20323 11.9054 0.510966 9.91675 0.589322 7.88272C0.667678 5.84869 1.51088 3.91918 2.95035 2.47996V2.47996ZM4.70802 4.23763C3.69151 5.25442 3.10555 6.62359 3.07175 8.06096C3.03796 9.49833 3.55893 10.8935 4.52653 11.957L4.70802 12.1484L13.9377 21.378L20.5295 14.7849L16.1354 10.3907L14.8177 11.7083C14.4715 12.0547 14.0604 12.3295 13.608 12.5171C13.1556 12.7046 12.6706 12.8012 12.1809 12.8013C11.1917 12.8015 10.2431 12.4088 9.54348 11.7096C8.8439 11.0103 8.45076 10.0618 8.45052 9.07272C8.45029 8.08361 8.84299 7.13491 9.54223 6.43534L12.1551 3.82121C11.1153 2.99131 9.81373 2.55913 8.48401 2.60218C7.15429 2.64524 5.88343 3.16072 4.89945 4.05614L4.70802 4.23763V4.23763ZM15.2565 7.75297C15.4896 7.51993 15.8058 7.38902 16.1354 7.38902C16.465 7.38902 16.7811 7.51993 17.0142 7.75297L22.2872 13.026L23.1673 12.1484C24.2008 11.1156 24.7892 9.71937 24.8067 8.25834C24.8241 6.79732 24.2692 5.38747 23.2605 4.3303C22.2519 3.27314 20.8697 2.65258 19.4095 2.60134C17.9493 2.55011 16.5269 3.07227 15.4467 4.05614L15.2565 4.23763L11.3011 8.19301C11.0857 8.40832 10.9568 8.69525 10.9389 8.99933C10.921 9.3034 11.0154 9.60346 11.2042 9.84253L11.3011 9.95068C11.5165 10.1661 11.8034 10.295 12.1075 10.3129C12.4115 10.3308 12.7116 10.2364 12.9507 10.0476L13.0588 9.95068L15.2565 7.75297V7.75297Z" fill="white"/>
</svg>
