<?xml version="1.0" encoding="utf-8"?>
<svg width="264" height="66" viewBox="0 0 264 66" fill="none" xmlns="http://www.w3.org/2000/svg">
<path d="M0 66L17.6733 14.5108L28.1103 27.731L47.3144 0.038208L67.2143 31.7667L73.7548 26.3394L81.4086 54.3106L46.2011 45.126L55.9423 29.2618L0 66Z" fill="white"/>
<path d="M42.7222 50.2749L62.0654 54.8672L48.2886 58.207L67.9101 64.8867H21.2915L39.104 60.4336L31.1719 56.6763L47.3145 54.3105L42.7222 50.2749Z" fill="white"/>
<path d="M263.687 30.258H252.488V0.270996H263.326V3.92905H256.462V12.6903H262.739V16.3935H256.462V26.6H263.687V30.258Z" fill="white"/>
<path d="M242.66 30.258H238.641V3.92905H233.628V0.270996H247.763V3.92905H242.66V30.258Z" fill="white"/>
<path d="M232.822 30.258H228.847L227.673 23.2129H222.164L221.08 30.258H217.151L222.254 0.270996H227.718L232.822 30.258ZM224.828 6.59356L222.705 19.7355H227.131L225.009 6.59356H224.828Z" fill="white"/>
<path d="M212.667 30.258H210.003L209.822 27.9548H209.641C208.874 29.3999 207.699 30.529 205.125 30.529C201.061 30.529 198.712 27.8193 198.712 22.9419V7.72256C198.712 2.84515 201.151 0 205.667 0C210.228 0 212.667 2.93548 212.667 7.81289V9.52901H208.828V7.4516C208.828 5.10321 207.79 3.79354 205.757 3.79354C203.77 3.79354 202.732 5.05805 202.732 7.40643V23.2129C202.732 25.5612 203.77 26.7806 205.667 26.7806C207.383 26.7806 208.467 25.8322 208.828 23.7548V17.8387H205.441V14.2258H212.667V30.258Z" fill="white"/>
<path d="M194.016 30.258H182.816V0.270996H193.654V3.92905H186.79V12.6903H193.067V16.3935H186.79V26.6H194.016V30.258Z" fill="white"/>
<path d="M177.64 30.258H172.898L166.034 7.04518H165.853C165.944 9.25807 165.989 11.3807 165.989 13.3677V30.258H162.421V0.270996H167.75L174.027 21.8129H174.208C174.118 18.9677 174.073 16.529 174.073 14.5419V0.270996H177.64V30.258Z" fill="white"/>
<path d="M157.293 30.258H153.228V0.270996H157.293V30.258Z" fill="white"/>
<path d="M142.688 18.3355H138.397V30.258H134.333V0.270996H142.688C146.843 0.270996 148.378 2.4839 148.378 6.27744V12.329C148.378 16.1226 146.843 18.3355 142.688 18.3355ZM138.397 3.92905V14.8129H141.875C143.772 14.8129 144.539 13.6839 144.539 11.6968V6.72905C144.539 4.9226 143.772 3.92905 141.875 3.92905H138.397Z" fill="white"/>
<path d="M129.599 30.258H118.128V0.270996H122.192V26.5548H129.599V30.258Z" fill="white"/>
<path d="M113.608 30.258H109.634L108.46 23.2129H102.95L101.867 30.258H97.9375L103.041 0.270996H108.505L113.608 30.258ZM105.615 6.59356L103.492 19.7355H107.918L105.796 6.59356H105.615Z" fill="white"/>
<path d="M263.669 61.0394C263.669 63.2932 262.514 64.4201 260.231 64.4201C258.006 64.4201 256.879 63.2932 256.879 61.0394V58.5544H259.566V61.0394C259.566 61.6173 259.797 61.9063 260.231 61.9063C260.664 61.9063 260.867 61.6173 260.867 61.0394V56.6474H260.751C260.404 57.3409 259.826 57.6876 258.988 57.6876C257.284 57.6876 256.821 56.5896 256.821 54.538V45.9563C256.821 44.3381 257.688 43.3557 259.046 43.3557C259.942 43.3557 260.52 43.818 260.982 44.7138H261.098L261.127 43.4713H263.669V61.0394ZM259.653 46.6497V53.8446C259.653 54.7403 259.74 55.1448 260.289 55.1448C260.78 55.1448 260.953 54.7114 260.953 54.0179V46.9676C260.953 46.2452 260.809 45.7829 260.318 45.7829C259.884 45.7829 259.653 46.0718 259.653 46.6497Z" fill="white"/>
<path d="M253.804 57.6876H250.972V46.5053C250.972 46.0429 250.77 45.7829 250.394 45.7829C250.047 45.7829 249.816 45.9852 249.7 46.4186V57.6876H246.898V43.4713H249.527L249.585 44.7138H249.7C250.163 43.7313 250.827 43.3557 251.636 43.3557C252.908 43.3557 253.804 44.3092 253.804 45.9274V57.6876Z" fill="white"/>
<path d="M243.868 57.6876H241.066V43.4713H243.868V57.6876ZM243.868 41.9977H241.066V39.426H243.868V41.9977Z" fill="white"/>
<path d="M235.666 54.4514V49.7704H238.065V54.4514C238.065 56.7341 237.313 57.8321 235.031 57.8321C232.719 57.8321 231.65 56.7341 231.65 54.4514V39.6283H234.424V43.4713H238.065V45.9852H234.424V54.4514C234.424 55.0293 234.626 55.3182 235.06 55.3182C235.464 55.3182 235.666 55.0293 235.666 54.4514Z" fill="white"/>
<path d="M228.621 57.6876H225.818V38.2703H228.621V57.6876Z" fill="white"/>
<path d="M215.922 43.4713H218.754V54.3936C218.754 55.1449 218.841 55.4049 219.361 55.4049C219.852 55.4049 219.968 55.1449 219.968 54.3936V43.4713H222.799V57.6876H220.141L220.112 56.474H219.997C219.477 57.4853 218.956 57.8321 218.061 57.8321C216.183 57.8321 215.922 56.3584 215.922 54.3936V43.4713Z" fill="white"/>
<path d="M212.898 47.7766H210.269V46.2452C210.269 45.8407 210.037 45.6384 209.633 45.6384C209.257 45.6384 208.968 45.8118 208.968 46.1874V47.8344C208.968 48.2967 209.026 48.4701 209.604 48.9035C210.326 49.4236 211.251 49.7993 211.973 50.4061C212.609 50.9262 213.014 51.5619 213.014 53.0066V54.9426C213.014 56.8785 211.973 57.8321 209.691 57.8321C207.264 57.8321 206.194 56.7919 206.194 54.827V53.1222H208.824V54.9137C208.824 55.3471 209.084 55.5494 209.546 55.5494C210.009 55.5494 210.211 55.3471 210.211 55.0004V53.0933C210.211 52.631 210.095 52.342 209.373 51.8219C208.737 51.3596 207.581 50.6661 207.061 50.0882C206.454 49.4236 206.31 48.6724 206.31 47.8344V45.9274C206.31 44.3381 207.495 43.3557 209.546 43.3557C211.713 43.3557 212.898 44.4826 212.898 46.3897V47.7766Z" fill="white"/>
<path d="M203.263 57.6876H200.432V46.5053C200.432 46.0429 200.229 45.7829 199.854 45.7829C199.507 45.7829 199.276 45.9852 199.16 46.4186V57.6876H196.357V43.4713H198.987L199.045 44.7138H199.16C199.623 43.7313 200.287 43.3557 201.096 43.3557C202.368 43.3557 203.263 44.3092 203.263 45.9274V57.6876Z" fill="white"/>
<path d="M193.365 46.7364V54.4514C193.365 56.763 192.267 57.8321 189.984 57.8321C187.672 57.8321 186.603 56.763 186.603 54.4514V46.7364C186.603 44.4248 187.672 43.3557 189.984 43.3557C192.267 43.3557 193.365 44.4248 193.365 46.7364ZM190.62 54.4514V46.7364C190.62 46.1585 190.388 45.8696 189.984 45.8696C189.579 45.8696 189.319 46.1585 189.319 46.7364V54.4514C189.319 55.0293 189.579 55.3182 189.984 55.3182C190.388 55.3182 190.62 55.0293 190.62 54.4514Z" fill="white"/>
<path d="M180.869 54.2781V49.8571H183.614V54.0758C183.614 56.5897 182.429 57.8321 180.175 57.8321C177.864 57.8321 176.65 56.4741 176.65 54.0469V42.1133C176.65 39.5995 177.806 38.3859 180.146 38.3859C182.371 38.3859 183.614 39.455 183.614 42.0844V45.3784H180.869V41.9688C180.869 41.3909 180.638 41.102 180.204 41.102C179.771 41.102 179.568 41.3909 179.568 41.9688V54.2781C179.568 54.8849 179.713 55.1449 180.175 55.1449C180.638 55.1449 180.869 54.8849 180.869 54.2781Z" fill="white"/>
<path d="M169.008 47.7766H166.379V46.2452C166.379 45.8407 166.148 45.6384 165.743 45.6384C165.367 45.6384 165.078 45.8118 165.078 46.1874V47.8344C165.078 48.2967 165.136 48.4701 165.714 48.9035C166.437 49.4236 167.361 49.7993 168.084 50.4061C168.719 50.9262 169.124 51.5619 169.124 53.0066V54.9426C169.124 56.8785 168.084 57.8321 165.801 57.8321C163.374 57.8321 162.305 56.7919 162.305 54.827V53.1222H164.934V54.9137C164.934 55.3471 165.194 55.5494 165.656 55.5494C166.119 55.5494 166.321 55.3471 166.321 55.0004V53.0933C166.321 52.631 166.205 52.342 165.483 51.8219C164.847 51.3596 163.692 50.6661 163.171 50.0882C162.565 49.4236 162.42 48.6724 162.42 47.8344V45.9274C162.42 44.3381 163.605 43.3557 165.656 43.3557C167.823 43.3557 169.008 44.4826 169.008 46.3897V47.7766Z" fill="white"/>
<path d="M159.593 47.7766H156.963V46.2452C156.963 45.8407 156.732 45.6384 156.327 45.6384C155.952 45.6384 155.663 45.8118 155.663 46.1874V47.8344C155.663 48.2967 155.721 48.4701 156.299 48.9035C157.021 49.4236 157.946 49.7993 158.668 50.4061C159.304 50.9262 159.708 51.5619 159.708 53.0066V54.9426C159.708 56.8785 158.668 57.8321 156.385 57.8321C153.958 57.8321 152.889 56.7919 152.889 54.827V53.1222H155.518V54.9137C155.518 55.3471 155.778 55.5494 156.241 55.5494C156.703 55.5494 156.905 55.3471 156.905 55.0004V53.0933C156.905 52.631 156.79 52.342 156.067 51.8219C155.432 51.3596 154.276 50.6661 153.756 50.0882C153.149 49.4236 153.004 48.6724 153.004 47.8344V45.9274C153.004 44.3381 154.189 43.3557 156.241 43.3557C158.408 43.3557 159.593 44.4826 159.593 46.3897V47.7766Z" fill="white"/>
<path d="M149.983 52.891V54.4514C149.983 56.7052 148.857 57.8321 146.545 57.8321C144.262 57.8321 143.193 56.7341 143.193 54.4514V46.7364C143.193 44.4537 144.262 43.3557 146.574 43.3557C148.857 43.3557 149.983 44.4537 149.983 46.7364V51.3885H145.909V54.5092C145.909 55.087 146.14 55.376 146.545 55.376C146.978 55.376 147.209 55.087 147.209 54.5092V52.891H149.983ZM147.209 49.3948V46.6786C147.209 46.0718 147.007 45.8118 146.574 45.8118C146.14 45.8118 145.909 46.0718 145.909 46.6786V49.3948H147.209Z" fill="white"/>
<path d="M140.175 57.6876H137.344V46.5053C137.344 46.0429 137.141 45.7829 136.766 45.7829C136.419 45.7829 136.188 45.9852 136.072 46.4186V57.6876H133.27V43.4713H135.899L135.957 44.7138H136.072C136.535 43.7313 137.199 43.3557 138.008 43.3557C139.28 43.3557 140.175 44.3092 140.175 45.9274V57.6876Z" fill="white"/>
<path d="M130.24 57.6876H127.437V43.4713H130.24V57.6876ZM130.24 41.9977H127.437V39.426H130.24V41.9977Z" fill="white"/>
<path d="M124.413 47.7766H121.784V46.2452C121.784 45.8407 121.552 45.6384 121.148 45.6384C120.772 45.6384 120.483 45.8118 120.483 46.1874V47.8344C120.483 48.2967 120.541 48.4701 121.119 48.9035C121.841 49.4236 122.766 49.7993 123.488 50.4061C124.124 50.9262 124.529 51.5619 124.529 53.0066V54.9426C124.529 56.8785 123.488 57.8321 121.206 57.8321C118.778 57.8321 117.709 56.7919 117.709 54.827V53.1222H120.339V54.9137C120.339 55.3471 120.599 55.5494 121.061 55.5494C121.523 55.5494 121.726 55.3471 121.726 55.0004V53.0933C121.726 52.631 121.61 52.342 120.888 51.8219C120.252 51.3596 119.096 50.6661 118.576 50.0882C117.969 49.4236 117.825 48.6724 117.825 47.8344V45.9274C117.825 44.3381 119.01 43.3557 121.061 43.3557C123.228 43.3557 124.413 44.4826 124.413 46.3897V47.7766Z" fill="white"/>
<path d="M107.901 43.4713H110.732V54.3936C110.732 55.1449 110.819 55.4049 111.339 55.4049C111.83 55.4049 111.946 55.1449 111.946 54.3936V43.4713H114.778V57.6876H112.119L112.09 56.474H111.975C111.455 57.4853 110.935 57.8321 110.039 57.8321C108.161 57.8321 107.901 56.3584 107.901 54.3936V43.4713Z" fill="white"/>
<path d="M102.311 57.6877H97.9193V38.5015H101.993C104.074 38.5015 104.854 39.6284 104.854 41.5354V45.1762C104.854 46.4476 104.363 47.2855 103.352 47.4589V47.5745C104.305 47.7478 105.056 48.2391 105.056 50.0305V55.116C105.056 56.8208 104.305 57.6877 102.311 57.6877ZM102.138 54.1336V49.8283C102.138 49.1637 101.849 48.8458 101.3 48.8458H100.809V55.1738H101.3C101.849 55.1738 102.138 54.8271 102.138 54.1336ZM102.109 45.494V42.0555C102.109 41.3332 101.965 41.0153 101.387 41.0153H100.809V46.4476H101.387C101.878 46.4476 102.109 46.1297 102.109 45.494Z" fill="white"/>
</svg>
