<?xml version="1.0" encoding="utf-8"?>
<svg width="26" height="24" viewBox="0 0 26 24" fill="none" xmlns="http://www.w3.org/2000/svg">
<path d="M11.0318 11.1932L21.662 0.562927L23.5771 2.47797L21.662 4.39437L25.0127 7.74503L23.0976 9.66143L19.7456 6.30942L17.8306 8.22446L20.7032 11.097L18.7881 13.0134L15.9155 10.1395L12.9468 13.1082C13.8684 14.5086 14.238 16.201 13.9841 17.8581C13.7303 19.5152 12.871 21.0193 11.5725 22.0796C10.274 23.1399 8.62846 23.6811 6.95407 23.5985C5.27968 23.5159 3.69538 22.8154 2.50751 21.6325C1.31708 20.4465 0.610109 18.8603 0.524008 17.1821C0.437907 15.504 0.978825 13.8537 2.04163 12.5522C3.10444 11.2506 4.61321 10.3907 6.27471 10.1395C7.9362 9.88835 9.63174 10.2639 11.0318 11.1932ZM10.169 19.7161C10.5636 19.3429 10.8793 18.8944 11.0976 18.3971C11.3158 17.8998 11.4321 17.3638 11.4397 16.8208C11.4472 16.2778 11.3459 15.7388 11.1415 15.2356C10.9372 14.7324 10.6341 14.2753 10.2501 13.8913C9.86604 13.5073 9.40894 13.2042 8.90577 12.9998C8.4026 12.7955 7.86357 12.6941 7.32055 12.7017C6.77753 12.7092 6.24153 12.8256 5.74424 13.0438C5.24694 13.262 4.79845 13.5778 4.42527 13.9723C3.68515 14.7386 3.27562 15.7649 3.28488 16.8303C3.29413 17.8956 3.72144 18.9146 4.47476 19.668C5.22808 20.4213 6.24714 20.8486 7.31246 20.8578C8.37777 20.8671 9.40411 20.4576 10.1704 19.7174L10.169 19.7161Z" fill="white"/>
</svg>
