<?xml version="1.0" encoding="utf-8"?>
<svg width="25" height="24" viewBox="0 0 25 24" fill="none" xmlns="http://www.w3.org/2000/svg">
<path d="M12.4167 23.9879C5.85809 23.9879 0.541656 18.6715 0.541656 12.1129C0.541656 6.79529 4.03647 2.29467 8.85416 0.78179V3.30404C6.81275 4.13297 5.12279 5.64544 4.07335 7.58274C3.02391 9.52004 2.6802 11.7618 3.10102 13.9245C3.52184 16.0872 4.68103 18.0365 6.38031 19.439C8.0796 20.8414 10.2134 21.6099 12.4167 21.6129C14.3093 21.6129 16.1588 21.0477 17.7282 19.9899C19.2976 18.9321 20.5154 17.4297 21.2255 15.6754H23.7478C22.2349 20.4931 17.7343 23.9879 12.4167 23.9879V23.9879ZM24.2323 13.3004H11.2292V0.29729C11.6198 0.258102 12.0165 0.237915 12.4167 0.237915C18.9752 0.237915 24.2917 5.55435 24.2917 12.1129C24.2917 12.5131 24.2715 12.9097 24.2323 13.3004ZM13.6042 2.68654V10.9254H21.843C21.5787 8.83257 20.6257 6.88713 19.1341 5.39551C17.6424 3.90389 15.697 2.95086 13.6042 2.68654Z" fill="white"/>
</svg>
